<svg xmlns="http://www.w3.org/2000/svg" xmlns:xlink="http://www.w3.org/1999/xlink" width="1080" zoomAndPan="magnify" viewBox="0 0 810 809.999993" height="1080" preserveAspectRatio="xMidYMid meet" version="1.0"><defs><clipPath id="b38780cae3"><path d="M 0 0.75 L 808.820312 0.75 L 808.820312 809 L 0 809 Z M 0 0.75 " clip-rule="nonzero"/></clipPath></defs><g clip-path="url(#b38780cae3)"><path fill="#ffce00" d="M 808.332031 404.628906 C 808.332031 411.238281 808.171875 417.847656 807.847656 424.449219 C 807.523438 431.050781 807.035156 437.640625 806.390625 444.21875 C 805.742188 450.796875 804.933594 457.355469 803.964844 463.894531 C 802.992188 470.433594 801.863281 476.945312 800.574219 483.429688 C 799.285156 489.910156 797.839844 496.359375 796.230469 502.773438 C 794.625 509.183594 792.863281 515.550781 790.945312 521.878906 C 789.027344 528.203125 786.953125 534.480469 784.726562 540.703125 C 782.5 546.925781 780.125 553.09375 777.59375 559.199219 C 775.066406 565.308594 772.386719 571.347656 769.5625 577.324219 C 766.734375 583.300781 763.765625 589.203125 760.648438 595.03125 C 757.53125 600.863281 754.277344 606.613281 750.878906 612.28125 C 747.480469 617.953125 743.945312 623.535156 740.273438 629.03125 C 736.601562 634.527344 732.796875 639.929688 728.859375 645.242188 C 724.921875 650.550781 720.855469 655.761719 716.664062 660.871094 C 712.46875 665.980469 708.152344 670.984375 703.714844 675.882812 C 699.273438 680.78125 694.71875 685.566406 690.042969 690.242188 C 685.371094 694.914062 680.585938 699.472656 675.6875 703.910156 C 670.789062 708.351562 665.785156 712.667969 660.675781 716.859375 C 655.566406 721.054688 650.355469 725.121094 645.046875 729.058594 C 639.738281 732.996094 634.335938 736.800781 628.839844 740.476562 C 623.34375 744.148438 617.761719 747.683594 612.089844 751.082031 C 606.421875 754.480469 600.671875 757.738281 594.84375 760.855469 C 589.011719 763.96875 583.109375 766.941406 577.136719 769.769531 C 571.160156 772.59375 565.117188 775.273438 559.011719 777.804688 C 552.90625 780.332031 546.738281 782.710938 540.515625 784.9375 C 534.292969 787.164062 528.015625 789.238281 521.691406 791.15625 C 515.367188 793.078125 508.996094 794.839844 502.585938 796.445312 C 496.171875 798.050781 489.726562 799.5 483.242188 800.789062 C 476.757812 802.082031 470.25 803.210938 463.710938 804.179688 C 457.171875 805.152344 450.613281 805.960938 444.035156 806.609375 C 437.457031 807.257812 430.867188 807.742188 424.261719 808.066406 C 417.660156 808.390625 411.054688 808.554688 404.445312 808.554688 C 397.835938 808.554688 391.226562 808.394531 384.625 808.070312 C 378.023438 807.746094 371.433594 807.257812 364.855469 806.613281 C 358.277344 805.964844 351.71875 805.15625 345.179688 804.183594 C 338.640625 803.214844 332.128906 802.085938 325.644531 800.796875 C 319.164062 799.507812 312.714844 798.058594 306.300781 796.453125 C 299.890625 794.847656 293.519531 793.085938 287.195312 791.167969 C 280.871094 789.25 274.59375 787.175781 268.371094 784.949219 C 262.148438 782.722656 255.980469 780.34375 249.875 777.816406 C 243.765625 775.285156 237.726562 772.605469 231.75 769.78125 C 225.773438 766.957031 219.871094 763.984375 214.042969 760.867188 C 208.210938 757.753906 202.460938 754.496094 196.792969 751.097656 C 191.121094 747.699219 185.539062 744.164062 180.042969 740.492188 C 174.546875 736.820312 169.144531 733.015625 163.835938 729.078125 C 158.523438 725.140625 153.316406 721.074219 148.207031 716.878906 C 143.09375 712.6875 138.089844 708.371094 133.195312 703.933594 C 128.296875 699.492188 123.507812 694.9375 118.835938 690.261719 C 114.160156 685.589844 109.605469 680.800781 105.164062 675.90625 C 100.726562 671.007812 96.410156 666.003906 92.214844 660.894531 C 88.023438 655.785156 83.957031 650.574219 80.019531 645.265625 C 76.082031 639.957031 72.273438 634.554688 68.601562 629.058594 C 64.929688 623.5625 61.394531 617.976562 57.996094 612.308594 C 54.597656 606.636719 51.339844 600.890625 48.222656 595.058594 C 45.109375 589.230469 42.136719 583.328125 39.308594 577.351562 C 36.484375 571.375 33.804688 565.335938 31.277344 559.226562 C 28.746094 553.121094 26.367188 546.957031 24.140625 540.730469 C 21.914062 534.507812 19.839844 528.234375 17.921875 521.90625 C 16.003906 515.582031 14.238281 509.214844 12.632812 502.800781 C 11.027344 496.390625 9.578125 489.941406 8.289062 483.457031 C 7 476.976562 5.871094 470.464844 4.898438 463.925781 C 3.929688 457.386719 3.121094 450.828125 2.472656 444.25 C 1.824219 437.671875 1.339844 431.082031 1.011719 424.480469 C 0.6875 417.875 0.527344 411.269531 0.527344 404.660156 C 0.527344 398.050781 0.6875 391.445312 1.011719 384.839844 C 1.335938 378.238281 1.824219 371.648438 2.472656 365.070312 C 3.117188 358.492188 3.925781 351.933594 4.898438 345.394531 C 5.867188 338.855469 6.996094 332.34375 8.285156 325.863281 C 9.574219 319.378906 11.023438 312.929688 12.628906 306.519531 C 14.234375 300.105469 15.996094 293.738281 17.917969 287.410156 C 19.835938 281.085938 21.910156 274.8125 24.136719 268.585938 C 26.363281 262.363281 28.738281 256.199219 31.269531 250.089844 C 33.800781 243.984375 36.476562 237.941406 39.304688 231.964844 C 42.128906 225.992188 45.101562 220.089844 48.214844 214.257812 C 51.332031 208.429688 54.589844 202.679688 57.988281 197.007812 C 61.386719 191.339844 64.921875 185.757812 68.59375 180.261719 C 72.265625 174.765625 76.070312 169.359375 80.007812 164.050781 C 83.945312 158.742188 88.011719 153.53125 92.207031 148.421875 C 96.398438 143.3125 100.714844 138.308594 105.15625 133.410156 C 109.59375 128.511719 114.148438 123.726562 118.824219 119.054688 C 123.5 114.378906 128.285156 109.820312 133.183594 105.382812 C 138.078125 100.945312 143.082031 96.628906 148.195312 92.433594 C 153.304688 88.238281 158.511719 84.175781 163.820312 80.238281 C 169.132812 76.300781 174.535156 72.492188 180.03125 68.820312 C 185.527344 65.148438 191.109375 61.613281 196.78125 58.214844 C 202.449219 54.816406 208.199219 51.558594 214.027344 48.445312 C 219.859375 45.328125 225.761719 42.355469 231.738281 39.53125 C 237.710938 36.703125 243.753906 34.027344 249.859375 31.496094 C 255.96875 28.964844 262.132812 26.589844 268.355469 24.359375 C 274.582031 22.132812 280.855469 20.0625 287.179688 18.140625 C 293.507812 16.222656 299.875 14.460938 306.289062 12.855469 C 312.699219 11.25 319.148438 9.800781 325.628906 8.511719 C 332.113281 7.222656 338.625 6.089844 345.164062 5.121094 C 351.703125 4.152344 358.261719 3.34375 364.839844 2.695312 C 371.417969 2.046875 378.007812 1.5625 384.609375 1.238281 C 391.210938 0.914062 397.820312 0.75 404.429688 0.75 C 411.039062 0.75 417.644531 0.914062 424.246094 1.238281 C 430.847656 1.5625 437.4375 2.046875 444.015625 2.695312 C 450.59375 3.34375 457.152344 4.152344 463.691406 5.121094 C 470.230469 6.089844 476.742188 7.222656 483.222656 8.511719 C 489.707031 9.800781 496.152344 11.246094 502.566406 12.855469 C 508.976562 14.460938 515.347656 16.222656 521.671875 18.140625 C 527.996094 20.058594 534.269531 22.132812 540.496094 24.359375 C 546.71875 26.585938 552.882812 28.964844 558.992188 31.492188 C 565.097656 34.023438 571.136719 36.699219 577.113281 39.527344 C 583.089844 42.351562 588.992188 45.324219 594.820312 48.4375 C 600.652344 51.554688 606.398438 54.8125 612.070312 58.210938 C 617.738281 61.609375 623.320312 65.144531 628.816406 68.816406 C 634.3125 72.488281 639.714844 76.292969 645.027344 80.230469 C 650.335938 84.167969 655.542969 88.230469 660.652344 92.425781 C 665.765625 96.617188 670.765625 100.933594 675.664062 105.375 C 680.5625 109.8125 685.347656 114.367188 690.023438 119.042969 C 694.695312 123.714844 699.253906 128.5 703.691406 133.398438 C 708.132812 138.296875 712.449219 143.300781 716.640625 148.410156 C 720.835938 153.519531 724.902344 158.726562 728.839844 164.035156 C 732.777344 169.347656 736.582031 174.75 740.253906 180.246094 C 743.925781 185.738281 747.460938 191.324219 750.859375 196.992188 C 754.257812 202.660156 757.515625 208.410156 760.632812 214.238281 C 763.746094 220.070312 766.71875 225.972656 769.546875 231.945312 C 772.371094 237.921875 775.050781 243.964844 777.578125 250.070312 C 780.109375 256.175781 782.488281 262.339844 784.714844 268.566406 C 786.941406 274.789062 789.015625 281.0625 790.933594 287.386719 C 792.851562 293.714844 794.617188 300.082031 796.222656 306.492188 C 797.828125 312.90625 799.277344 319.351562 800.566406 325.835938 C 801.855469 332.316406 802.988281 338.828125 803.957031 345.367188 C 804.925781 351.90625 805.734375 358.464844 806.382812 365.042969 C 807.03125 371.621094 807.519531 378.210938 807.84375 384.8125 C 808.167969 391.414062 808.332031 398.019531 808.332031 404.628906 Z M 808.332031 404.628906 " fill-opacity="1" fill-rule="nonzero"/></g><path fill="#ffce00" d="M 736.847656 392.671875 C 736.847656 415.988281 709.765625 434.886719 676.355469 434.886719 C 642.949219 434.886719 615.839844 415.988281 615.839844 392.671875 C 615.839844 369.359375 642.949219 350.460938 676.355469 350.460938 C 709.765625 350.460938 736.847656 369.359375 736.847656 392.671875 Z M 124.546875 350.460938 C 91.136719 350.460938 64.03125 369.359375 64.03125 392.671875 C 64.03125 415.988281 91.136719 434.886719 124.546875 434.886719 C 157.953125 434.886719 185.039062 415.988281 185.039062 392.671875 C 185.039062 369.359375 157.953125 350.460938 124.546875 350.460938 Z M 124.546875 350.460938 " fill-opacity="1" fill-rule="nonzero"/><path fill="#000000" d="M 401.53125 638.253906 C 309.746094 638.253906 226.308594 586.40625 188.945312 506.164062 C 188.707031 505.652344 188.496094 505.128906 188.308594 504.59375 C 188.121094 504.0625 187.960938 503.519531 187.828125 502.972656 C 187.695312 502.421875 187.585938 501.871094 187.507812 501.3125 C 187.429688 500.75 187.375 500.191406 187.351562 499.625 C 187.328125 499.0625 187.332031 498.496094 187.363281 497.933594 C 187.394531 497.371094 187.453125 496.808594 187.539062 496.25 C 187.625 495.691406 187.738281 495.140625 187.878906 494.59375 C 188.019531 494.046875 188.1875 493.507812 188.378906 492.976562 C 188.574219 492.445312 188.792969 491.925781 189.039062 491.417969 C 189.28125 490.90625 189.550781 490.410156 189.84375 489.929688 C 190.136719 489.445312 190.453125 488.980469 190.792969 488.527344 C 191.132812 488.074219 191.492188 487.640625 191.875 487.226562 C 192.257812 486.808594 192.660156 486.414062 193.078125 486.035156 C 193.5 485.660156 193.9375 485.304688 194.394531 484.972656 C 194.851562 484.636719 195.320312 484.328125 195.808594 484.039062 C 196.292969 483.753906 196.792969 483.488281 197.304688 483.25 C 197.816406 483.011719 198.339844 482.800781 198.871094 482.613281 C 199.40625 482.425781 199.945312 482.265625 200.496094 482.132812 C 201.042969 481.996094 201.597656 481.890625 202.15625 481.8125 C 202.714844 481.730469 203.277344 481.679688 203.839844 481.65625 C 204.40625 481.632812 204.96875 481.636719 205.535156 481.667969 C 206.097656 481.699219 206.660156 481.757812 207.21875 481.84375 C 207.773438 481.929688 208.328125 482.042969 208.875 482.183594 C 209.421875 482.324219 209.960938 482.492188 210.492188 482.683594 C 211.023438 482.878906 211.542969 483.097656 212.050781 483.34375 C 212.558594 483.585938 213.054688 483.855469 213.539062 484.148438 C 214.019531 484.441406 214.488281 484.757812 214.941406 485.097656 C 215.390625 485.4375 215.824219 485.796875 216.242188 486.179688 C 216.65625 486.5625 217.054688 486.960938 217.429688 487.382812 C 217.808594 487.804688 218.164062 488.242188 218.496094 488.699219 C 218.828125 489.152344 219.140625 489.625 219.429688 490.109375 C 219.714844 490.597656 219.976562 491.097656 220.214844 491.609375 C 251.945312 559.734375 323.105469 603.765625 401.53125 603.765625 C 478.097656 603.765625 546.382812 563.089844 579.90625 497.609375 C 580.160156 497.105469 580.441406 496.617188 580.746094 496.140625 C 581.050781 495.667969 581.378906 495.207031 581.730469 494.765625 C 582.078125 494.320312 582.449219 493.894531 582.84375 493.488281 C 583.234375 493.082031 583.644531 492.695312 584.074219 492.328125 C 584.503906 491.960938 584.949219 491.617188 585.414062 491.296875 C 585.878906 490.972656 586.355469 490.671875 586.847656 490.398438 C 587.34375 490.121094 587.847656 489.871094 588.363281 489.644531 C 588.882812 489.417969 589.410156 489.21875 589.945312 489.046875 C 590.484375 488.871094 591.027344 488.722656 591.582031 488.605469 C 592.132812 488.484375 592.6875 488.390625 593.25 488.324219 C 593.8125 488.257812 594.375 488.21875 594.9375 488.207031 C 595.503906 488.199219 596.066406 488.214844 596.628906 488.261719 C 597.191406 488.304688 597.753906 488.375 598.308594 488.476562 C 598.863281 488.578125 599.414062 488.703125 599.957031 488.855469 C 600.5 489.011719 601.035156 489.191406 601.5625 489.398438 C 602.085938 489.601562 602.601562 489.835938 603.105469 490.089844 C 603.605469 490.347656 604.097656 490.628906 604.570312 490.933594 C 605.046875 491.238281 605.507812 491.566406 605.949219 491.914062 C 606.394531 492.265625 606.816406 492.636719 607.226562 493.027344 C 607.632812 493.421875 608.019531 493.832031 608.382812 494.261719 C 608.75 494.691406 609.09375 495.136719 609.417969 495.601562 C 609.742188 496.0625 610.039062 496.542969 610.316406 497.035156 C 610.589844 497.527344 610.84375 498.035156 611.066406 498.550781 C 611.292969 499.070312 611.492188 499.597656 611.667969 500.132812 C 611.84375 500.671875 611.988281 501.214844 612.109375 501.765625 C 612.230469 502.320312 612.324219 502.875 612.390625 503.4375 C 612.457031 503.996094 612.492188 504.558594 612.503906 505.125 C 612.515625 505.6875 612.5 506.253906 612.453125 506.816406 C 612.410156 507.378906 612.335938 507.9375 612.238281 508.492188 C 612.136719 509.050781 612.011719 509.601562 611.855469 510.144531 C 611.703125 510.6875 611.523438 511.222656 611.316406 511.746094 C 611.109375 512.273438 610.878906 512.785156 610.621094 513.289062 C 605.835938 522.582031 600.429688 531.5 594.410156 540.042969 C 588.390625 548.589844 581.8125 556.679688 574.675781 564.316406 C 567.539062 571.953125 559.910156 579.0625 551.792969 585.644531 C 543.675781 592.226562 535.140625 598.222656 526.195312 603.625 C 516.839844 609.285156 507.144531 614.28125 497.105469 618.617188 C 487.066406 622.949219 476.777344 626.578125 466.242188 629.507812 C 455.707031 632.433594 445.023438 634.628906 434.1875 636.09375 C 423.351562 637.558594 412.464844 638.277344 401.53125 638.253906 Z M 248.289062 227.636719 C 207.457031 227.636719 174.714844 268.445312 168.714844 326.503906 C 168.65625 327.097656 168.632812 327.695312 168.636719 328.292969 C 168.644531 328.890625 168.679688 329.488281 168.746094 330.082031 C 168.816406 330.679688 168.914062 331.269531 169.042969 331.851562 C 169.171875 332.4375 169.332031 333.011719 169.519531 333.582031 C 169.710938 334.148438 169.929688 334.703125 170.175781 335.25 C 170.425781 335.792969 170.699219 336.324219 171.003906 336.839844 C 171.304688 337.355469 171.636719 337.855469 171.988281 338.339844 C 172.34375 338.820312 172.722656 339.28125 173.128906 339.722656 C 173.53125 340.167969 173.957031 340.585938 174.402344 340.984375 C 174.851562 341.382812 175.316406 341.753906 175.804688 342.105469 C 176.289062 342.453125 176.792969 342.777344 177.3125 343.074219 C 177.832031 343.371094 178.367188 343.636719 178.914062 343.878906 C 179.460938 344.121094 180.023438 344.332031 180.59375 344.515625 C 181.160156 344.695312 181.738281 344.847656 182.324219 344.972656 C 182.910156 345.09375 183.503906 345.183594 184.097656 345.246094 C 184.695312 345.304688 185.289062 345.335938 185.890625 345.332031 C 186.953125 345.328125 188.003906 345.230469 189.050781 345.03125 C 190.09375 344.835938 191.113281 344.542969 192.101562 344.160156 C 193.09375 343.773438 194.039062 343.300781 194.945312 342.742188 C 195.847656 342.183594 196.695312 341.546875 197.480469 340.832031 C 198.265625 340.117188 198.980469 339.335938 199.625 338.488281 C 200.265625 337.640625 200.828125 336.746094 201.304688 335.792969 C 201.78125 334.84375 202.167969 333.859375 202.464844 332.839844 C 202.757812 331.816406 202.960938 330.777344 203.0625 329.722656 C 207.433594 287.851562 228.839844 262.171875 248.289062 262.171875 C 267.742188 262.171875 289.148438 287.851562 293.492188 329.722656 C 293.546875 330.285156 293.625 330.839844 293.734375 331.394531 C 293.839844 331.949219 293.976562 332.496094 294.136719 333.039062 C 294.300781 333.578125 294.488281 334.113281 294.703125 334.632812 C 294.914062 335.15625 295.15625 335.667969 295.417969 336.167969 C 295.683594 336.664062 295.972656 337.152344 296.28125 337.621094 C 296.59375 338.09375 296.929688 338.546875 297.285156 338.984375 C 297.640625 339.421875 298.019531 339.84375 298.414062 340.242188 C 298.8125 340.644531 299.230469 341.023438 299.664062 341.386719 C 300.097656 341.746094 300.550781 342.082031 301.019531 342.398438 C 301.488281 342.714844 301.96875 343.007812 302.464844 343.277344 C 302.964844 343.542969 303.472656 343.789062 303.992188 344.003906 C 304.515625 344.222656 305.042969 344.417969 305.582031 344.582031 C 306.125 344.75 306.667969 344.890625 307.222656 345 C 307.777344 345.113281 308.332031 345.199219 308.894531 345.257812 C 309.457031 345.316406 310.019531 345.347656 310.585938 345.347656 C 311.148438 345.351562 311.714844 345.328125 312.277344 345.273438 C 312.835938 345.222656 313.394531 345.140625 313.949219 345.035156 C 314.503906 344.925781 315.050781 344.792969 315.59375 344.628906 C 316.136719 344.46875 316.667969 344.28125 317.191406 344.066406 C 317.710938 343.855469 318.222656 343.617188 318.722656 343.351562 C 319.222656 343.089844 319.707031 342.800781 320.179688 342.488281 C 320.648438 342.175781 321.105469 341.84375 321.542969 341.488281 C 321.980469 341.132812 322.402344 340.753906 322.800781 340.359375 C 323.203125 339.960938 323.585938 339.542969 323.945312 339.109375 C 324.304688 338.675781 324.644531 338.222656 324.960938 337.757812 C 325.277344 337.289062 325.566406 336.804688 325.835938 336.308594 C 326.105469 335.8125 326.347656 335.304688 326.566406 334.785156 C 326.789062 334.261719 326.980469 333.734375 327.148438 333.195312 C 327.3125 332.652344 327.453125 332.109375 327.566406 331.554688 C 327.679688 331 327.765625 330.445312 327.824219 329.882812 C 327.882812 329.320312 327.914062 328.757812 327.917969 328.191406 C 327.917969 327.628906 327.894531 327.066406 327.84375 326.503906 C 321.957031 268.445312 289.125 227.636719 248.289062 227.636719 Z M 631.132812 326.503906 C 625.222656 268.492188 592.390625 227.636719 551.554688 227.636719 C 510.722656 227.636719 477.980469 268.445312 472.003906 326.503906 C 471.945312 327.097656 471.921875 327.695312 471.925781 328.292969 C 471.929688 328.890625 471.96875 329.488281 472.035156 330.082031 C 472.105469 330.679688 472.203125 331.269531 472.332031 331.851562 C 472.460938 332.4375 472.621094 333.011719 472.808594 333.582031 C 473 334.148438 473.21875 334.703125 473.464844 335.25 C 473.714844 335.792969 473.988281 336.324219 474.292969 336.839844 C 474.59375 337.355469 474.925781 337.855469 475.277344 338.339844 C 475.632812 338.820312 476.011719 339.28125 476.417969 339.722656 C 476.820312 340.167969 477.246094 340.585938 477.691406 340.984375 C 478.140625 341.382812 478.605469 341.753906 479.09375 342.105469 C 479.578125 342.453125 480.082031 342.777344 480.601562 343.074219 C 481.121094 343.371094 481.65625 343.636719 482.203125 343.878906 C 482.75 344.121094 483.3125 344.332031 483.878906 344.515625 C 484.449219 344.695312 485.027344 344.847656 485.613281 344.972656 C 486.199219 345.09375 486.792969 345.183594 487.386719 345.246094 C 487.984375 345.304688 488.578125 345.335938 489.179688 345.332031 C 490.242188 345.328125 491.292969 345.230469 492.335938 345.03125 C 493.378906 344.832031 494.398438 344.542969 495.386719 344.15625 C 496.378906 343.773438 497.324219 343.300781 498.226562 342.742188 C 499.128906 342.183594 499.972656 341.542969 500.761719 340.828125 C 501.546875 340.113281 502.257812 339.332031 502.902344 338.488281 C 503.542969 337.640625 504.101562 336.742188 504.578125 335.792969 C 505.054688 334.84375 505.4375 333.859375 505.734375 332.835938 C 506.027344 331.816406 506.226562 330.777344 506.332031 329.722656 C 510.699219 287.851562 532.128906 262.171875 551.554688 262.171875 C 570.984375 262.171875 592.414062 287.851562 596.78125 329.722656 C 596.835938 330.285156 596.914062 330.839844 597.023438 331.394531 C 597.128906 331.949219 597.265625 332.496094 597.425781 333.039062 C 597.589844 333.578125 597.777344 334.113281 597.992188 334.632812 C 598.203125 335.15625 598.445312 335.667969 598.707031 336.167969 C 598.972656 336.664062 599.261719 337.152344 599.570312 337.621094 C 599.882812 338.09375 600.21875 338.546875 600.574219 338.984375 C 600.929688 339.421875 601.308594 339.84375 601.703125 340.242188 C 602.101562 340.644531 602.519531 341.023438 602.953125 341.386719 C 603.386719 341.746094 603.839844 342.082031 604.308594 342.398438 C 604.777344 342.714844 605.257812 343.007812 605.753906 343.277344 C 606.253906 343.542969 606.761719 343.789062 607.28125 344.003906 C 607.804688 344.222656 608.332031 344.417969 608.871094 344.582031 C 609.414062 344.75 609.957031 344.890625 610.511719 345 C 611.066406 345.113281 611.621094 345.199219 612.183594 345.257812 C 612.746094 345.316406 613.308594 345.347656 613.875 345.347656 C 614.4375 345.351562 615.003906 345.328125 615.566406 345.273438 C 616.125 345.222656 616.683594 345.140625 617.238281 345.035156 C 617.792969 344.925781 618.339844 344.792969 618.882812 344.628906 C 619.425781 344.46875 619.957031 344.28125 620.480469 344.066406 C 621 343.855469 621.511719 343.617188 622.011719 343.351562 C 622.511719 343.089844 622.996094 342.800781 623.46875 342.488281 C 623.9375 342.175781 624.394531 341.84375 624.832031 341.488281 C 625.269531 341.132812 625.691406 340.753906 626.089844 340.359375 C 626.492188 339.960938 626.875 339.542969 627.234375 339.109375 C 627.59375 338.675781 627.933594 338.222656 628.25 337.757812 C 628.566406 337.289062 628.855469 336.804688 629.125 336.308594 C 629.394531 335.8125 629.636719 335.304688 629.855469 334.785156 C 630.078125 334.261719 630.269531 333.734375 630.4375 333.195312 C 630.601562 332.652344 630.742188 332.109375 630.855469 331.554688 C 630.96875 331 631.054688 330.445312 631.113281 329.882812 C 631.171875 329.320312 631.203125 328.757812 631.207031 328.191406 C 631.207031 327.628906 631.183594 327.066406 631.132812 326.503906 Z M 631.132812 326.503906 " fill-opacity="1" fill-rule="nonzero"/></svg>